# xmcd
#
# Track frame offsets: 
#        150
#        99273
#        139521
#
# Disc length: 2543 seconds
#
# Revision: 0
# Processed by: cddbd v1.5.2PL0 Copyright (c) Steve Scherf et al.
# Submitted via: ExactAudioCopy v0.95a5
#
DISCID=1a09ed03
DTITLE=Frumpy - Live
DYEAR=1972
DGENRE=blues
TTITLE0=Release
TTITLE1=Take care of Illusion
TTITLE2=To my mother
EXTD=
EXTT0=
EXTT1=
EXTT2=
PLAYORDER=
